%TF.GenerationSoftware,KiCad,Pcbnew,7.0.11+dfsg-1*%
%TF.CreationDate,2024-04-27T01:01:36+02:00*%
%TF.ProjectId,door_open_alarm,646f6f72-5f6f-4706-956e-5f616c61726d,rev?*%
%TF.SameCoordinates,Original*%
%TF.FileFunction,Copper,L1,Top*%
%TF.FilePolarity,Positive*%
%FSLAX46Y46*%
G04 Gerber Fmt 4.6, Leading zero omitted, Abs format (unit mm)*
G04 Created by KiCad (PCBNEW 7.0.11+dfsg-1) date 2024-04-27 01:01:36*
%MOMM*%
%LPD*%
G01*
G04 APERTURE LIST*
G04 Aperture macros list*
%AMRoundRect*
0 Rectangle with rounded corners*
0 $1 Rounding radius*
0 $2 $3 $4 $5 $6 $7 $8 $9 X,Y pos of 4 corners*
0 Add a 4 corners polygon primitive as box body*
4,1,4,$2,$3,$4,$5,$6,$7,$8,$9,$2,$3,0*
0 Add four circle primitives for the rounded corners*
1,1,$1+$1,$2,$3*
1,1,$1+$1,$4,$5*
1,1,$1+$1,$6,$7*
1,1,$1+$1,$8,$9*
0 Add four rect primitives between the rounded corners*
20,1,$1+$1,$2,$3,$4,$5,0*
20,1,$1+$1,$4,$5,$6,$7,0*
20,1,$1+$1,$6,$7,$8,$9,0*
20,1,$1+$1,$8,$9,$2,$3,0*%
%AMFreePoly0*
4,1,6,0.600000,-0.600000,-0.600000,-0.600000,-0.600000,0.000000,0.000000,0.600000,0.600000,0.600000,0.600000,-0.600000,0.600000,-0.600000,$1*%
G04 Aperture macros list end*
%TA.AperFunction,SMDPad,CuDef*%
%ADD10RoundRect,0.250000X0.250000X0.475000X-0.250000X0.475000X-0.250000X-0.475000X0.250000X-0.475000X0*%
%TD*%
%TA.AperFunction,SMDPad,CuDef*%
%ADD11RoundRect,0.250000X-0.262500X-0.450000X0.262500X-0.450000X0.262500X0.450000X-0.262500X0.450000X0*%
%TD*%
%TA.AperFunction,SMDPad,CuDef*%
%ADD12RoundRect,0.250000X-0.250000X-0.475000X0.250000X-0.475000X0.250000X0.475000X-0.250000X0.475000X0*%
%TD*%
%TA.AperFunction,SMDPad,CuDef*%
%ADD13R,0.950000X1.150000*%
%TD*%
%TA.AperFunction,SMDPad,CuDef*%
%ADD14R,0.800000X0.800000*%
%TD*%
%TA.AperFunction,SMDPad,CuDef*%
%ADD15C,1.000000*%
%TD*%
%TA.AperFunction,SMDPad,CuDef*%
%ADD16RoundRect,0.250000X0.262500X0.450000X-0.262500X0.450000X-0.262500X-0.450000X0.262500X-0.450000X0*%
%TD*%
%TA.AperFunction,SMDPad,CuDef*%
%ADD17R,0.850000X0.300000*%
%TD*%
%TA.AperFunction,SMDPad,CuDef*%
%ADD18R,1.040000X0.530000*%
%TD*%
%TA.AperFunction,SMDPad,CuDef*%
%ADD19C,0.500000*%
%TD*%
%TA.AperFunction,SMDPad,CuDef*%
%ADD20R,0.800000X0.400000*%
%TD*%
%TA.AperFunction,SMDPad,CuDef*%
%ADD21R,0.400000X0.800000*%
%TD*%
%TA.AperFunction,SMDPad,CuDef*%
%ADD22FreePoly0,0.000000*%
%TD*%
%TA.AperFunction,SMDPad,CuDef*%
%ADD23R,1.200000X1.200000*%
%TD*%
%TA.AperFunction,SMDPad,CuDef*%
%ADD24R,1.230000X1.360000*%
%TD*%
%TA.AperFunction,SMDPad,CuDef*%
%ADD25R,2.000000X2.000000*%
%TD*%
%TA.AperFunction,ComponentPad*%
%ADD26C,3.800000*%
%TD*%
%TA.AperFunction,ComponentPad*%
%ADD27C,0.700000*%
%TD*%
%TA.AperFunction,SMDPad,CuDef*%
%ADD28R,1.100000X0.550000*%
%TD*%
%TA.AperFunction,SMDPad,CuDef*%
%ADD29R,1.100000X0.300000*%
%TD*%
%TA.AperFunction,ComponentPad*%
%ADD30O,2.000000X1.100000*%
%TD*%
%TA.AperFunction,ComponentPad*%
%ADD31O,1.800000X1.200000*%
%TD*%
%TA.AperFunction,SMDPad,CuDef*%
%ADD32R,0.530000X1.040000*%
%TD*%
%TA.AperFunction,SMDPad,CuDef*%
%ADD33R,0.940000X0.500000*%
%TD*%
%TA.AperFunction,SMDPad,CuDef*%
%ADD34R,0.750000X0.400000*%
%TD*%
%TA.AperFunction,ComponentPad*%
%ADD35C,2.500000*%
%TD*%
%TA.AperFunction,SMDPad,CuDef*%
%ADD36R,2.500000X1.100000*%
%TD*%
%TA.AperFunction,SMDPad,CuDef*%
%ADD37R,2.340000X3.600000*%
%TD*%
%TA.AperFunction,ComponentPad*%
%ADD38R,1.700000X1.700000*%
%TD*%
%TA.AperFunction,ComponentPad*%
%ADD39C,1.700000*%
%TD*%
%TA.AperFunction,ViaPad*%
%ADD40C,0.600000*%
%TD*%
%TA.AperFunction,Conductor*%
%ADD41C,0.250000*%
%TD*%
%TA.AperFunction,Conductor*%
%ADD42C,0.400000*%
%TD*%
%TA.AperFunction,Conductor*%
%ADD43C,0.200000*%
%TD*%
G04 APERTURE END LIST*
D10*
%TO.P,C3,1*%
%TO.N,+3.3V*%
X100021400Y-74269600D03*
%TO.P,C3,2*%
%TO.N,GND*%
X98121400Y-74269600D03*
%TD*%
D11*
%TO.P,R14,1*%
%TO.N,/STRAP_45*%
X121056400Y-79502000D03*
%TO.P,R14,2*%
%TO.N,GND*%
X122881400Y-79502000D03*
%TD*%
D12*
%TO.P,C7,1*%
%TO.N,/BOOT0*%
X113881400Y-94413700D03*
%TO.P,C7,2*%
%TO.N,GND*%
X115781400Y-94413700D03*
%TD*%
D13*
%TO.P,D4,1,C*%
%TO.N,/BOOT0*%
X113884400Y-96774000D03*
%TO.P,D4,2,A*%
%TO.N,GND*%
X117264400Y-96774000D03*
%TD*%
D14*
%TO.P,LED2,1,K*%
%TO.N,GND*%
X118110000Y-86715600D03*
%TO.P,LED2,2,A*%
%TO.N,Net-(LED2-A)*%
X116510000Y-86715600D03*
%TD*%
D15*
%TO.P,TP8,1,1*%
%TO.N,/V_SENSE*%
X87440000Y-76170000D03*
%TD*%
D16*
%TO.P,R8,1*%
%TO.N,/EN*%
X91741000Y-83108800D03*
%TO.P,R8,2*%
%TO.N,/V_INPUT*%
X89916000Y-83108800D03*
%TD*%
D17*
%TO.P,D1,1,I/O1*%
%TO.N,/D-*%
X129032000Y-97020000D03*
%TO.P,D1,2,GND*%
%TO.N,GND*%
X129032000Y-96520000D03*
%TO.P,D1,3,I/O2*%
%TO.N,/D+*%
X129032000Y-96020000D03*
%TO.P,D1,4,I/O2*%
%TO.N,/USB_D+*%
X127592000Y-96020000D03*
%TO.P,D1,5,VBUS*%
%TO.N,+3.3V*%
X127592000Y-96520000D03*
%TO.P,D1,6,I/O1*%
%TO.N,/USB_D-*%
X127592000Y-97020000D03*
%TD*%
D16*
%TO.P,R16,1*%
%TO.N,/STRAP_3*%
X95246200Y-74218800D03*
%TO.P,R16,2*%
%TO.N,GND*%
X93421200Y-74218800D03*
%TD*%
D10*
%TO.P,C2,1*%
%TO.N,+3.3V*%
X100021400Y-72085200D03*
%TO.P,C2,2*%
%TO.N,GND*%
X98121400Y-72085200D03*
%TD*%
D15*
%TO.P,TP2,1,1*%
%TO.N,+3.3V*%
X121300000Y-72000000D03*
%TD*%
D18*
%TO.P,Q3,1,G*%
%TO.N,/REED_EN*%
X93415500Y-85018800D03*
%TO.P,Q3,2,S*%
%TO.N,Net-(Q3-S)*%
X93415500Y-86918800D03*
%TO.P,Q3,3,D*%
%TO.N,/REED*%
X95615500Y-85968800D03*
%TD*%
D15*
%TO.P,TP5,1,1*%
%TO.N,GND*%
X132100000Y-89300000D03*
%TD*%
D19*
%TO.P,FID1,*%
%TO.N,*%
X91980000Y-107270000D03*
%TD*%
D11*
%TO.P,R9,1*%
%TO.N,Net-(Q1-D)*%
X89916000Y-80313850D03*
%TO.P,R9,2*%
%TO.N,/V_SENSE*%
X91741000Y-80313850D03*
%TD*%
D20*
%TO.P,U1,1,GND*%
%TO.N,GND*%
X102368600Y-71377600D03*
%TO.P,U1,2,GND*%
X102368600Y-72227600D03*
%TO.P,U1,3,3V3*%
%TO.N,+3.3V*%
X102368600Y-73077600D03*
%TO.P,U1,4,GPIO0/BOOT*%
%TO.N,/BOOT0*%
X102368600Y-73927600D03*
%TO.P,U1,5,GPIO1/TOUCH1/ADC1_CH0*%
%TO.N,unconnected-(U1-GPIO1{slash}TOUCH1{slash}ADC1_CH0-Pad5)*%
X102368600Y-74777600D03*
%TO.P,U1,6,GPIO2/TOUCH2/ADC1_CH1*%
%TO.N,unconnected-(U1-GPIO2{slash}TOUCH2{slash}ADC1_CH1-Pad6)*%
X102368600Y-75627600D03*
%TO.P,U1,7,GPIO3/TOUCH3/ADC1_CH2*%
%TO.N,/STRAP_3*%
X102368600Y-76477600D03*
%TO.P,U1,8,GPIO4/TOUCH4/ADC1_CH3*%
%TO.N,/V_SENSE*%
X102368600Y-77327600D03*
%TO.P,U1,9,GPIO5/TOUCH5/ADC1_CH4*%
%TO.N,/REED*%
X102368600Y-78177600D03*
%TO.P,U1,10,GPIO6/TOUCH6/ADC1_CH5*%
%TO.N,/MEAS_EN*%
X102368600Y-79027600D03*
%TO.P,U1,11,GPIO7/TOUCH7/ADC1_CH6*%
%TO.N,unconnected-(U1-GPIO7{slash}TOUCH7{slash}ADC1_CH6-Pad11)*%
X102368600Y-79877600D03*
%TO.P,U1,12,GPIO8/TOUCH8/ADC1_CH7/SUBSPICS1*%
%TO.N,unconnected-(U1-GPIO8{slash}TOUCH8{slash}ADC1_CH7{slash}SUBSPICS1-Pad12)*%
X102368600Y-80727600D03*
%TO.P,U1,13,GPIO9/TOUCH9/ADC1_CH8/FSPIHD/SUBSPIHD*%
%TO.N,unconnected-(U1-GPIO9{slash}TOUCH9{slash}ADC1_CH8{slash}FSPIHD{slash}SUBSPIHD-Pad13)*%
X102368600Y-81577600D03*
%TO.P,U1,14,GPIO10/TOUCH10/ADC1_CH9/FSPICS0/FSPIIO4/SUBSPICS0*%
%TO.N,/REED_EN*%
X102368600Y-82427600D03*
%TO.P,U1,15,GPIO11/TOUCH11/ADC2_CH0/FSPID/FSPIIO5/SUBSPID*%
%TO.N,unconnected-(U1-GPIO11{slash}TOUCH11{slash}ADC2_CH0{slash}FSPID{slash}FSPIIO5{slash}SUBSPID-Pad15)*%
X102368600Y-83277600D03*
D21*
%TO.P,U1,16,GPIO12/TOUCH12/ADC2_CH1/FSPICLK/FSPIIO6/SUBSPICLK*%
%TO.N,unconnected-(U1-GPIO12{slash}TOUCH12{slash}ADC2_CH1{slash}FSPICLK{slash}FSPIIO6{slash}SUBSPICLK-Pad16)*%
X103418600Y-84327600D03*
%TO.P,U1,17,GPIO13/TOUCH13/ADC2_CH2/FSPIQ/FSPIIO7/SUBSPIQ*%
%TO.N,unconnected-(U1-GPIO13{slash}TOUCH13{slash}ADC2_CH2{slash}FSPIQ{slash}FSPIIO7{slash}SUBSPIQ-Pad17)*%
X104268600Y-84327600D03*
%TO.P,U1,18,GPIO14/TOUCH14/ADC2_CH3/FSPIWP/FSPIDQS/SUBSPIWP*%
%TO.N,/LED_EN*%
X105118600Y-84327600D03*
%TO.P,U1,19,GPIO15/U0RTS/ADC2_CH4/XTAL_32K_P*%
%TO.N,unconnected-(U1-GPIO15{slash}U0RTS{slash}ADC2_CH4{slash}XTAL_32K_P-Pad19)*%
X105968600Y-84327600D03*
%TO.P,U1,20,GPIO16/U0CTS/ADC2_CH5/XTAL_32K_N*%
%TO.N,unconnected-(U1-GPIO16{slash}U0CTS{slash}ADC2_CH5{slash}XTAL_32K_N-Pad20)*%
X106818600Y-84327600D03*
%TO.P,U1,21,GPIO17/U1TXD/ADC2_CH6*%
%TO.N,unconnected-(U1-GPIO17{slash}U1TXD{slash}ADC2_CH6-Pad21)*%
X107668600Y-84327600D03*
%TO.P,U1,22,GPIO18/U1RXD/ADC2_CH7/CLK_OUT3*%
%TO.N,unconnected-(U1-GPIO18{slash}U1RXD{slash}ADC2_CH7{slash}CLK_OUT3-Pad22)*%
X108518600Y-84327600D03*
%TO.P,U1,23,GPIO19/U1RTS/ADC2_CH8/CLK_OUT2/USB_D-*%
%TO.N,/USB_D-_FIL*%
X109368600Y-84327600D03*
%TO.P,U1,24,GPIO20/U1CTS/ADC2_CH9/CLK_OUT1/USB_D+*%
%TO.N,/USB_D+_FIL*%
X110218600Y-84327600D03*
%TO.P,U1,25,GPIO21*%
%TO.N,/GEN_1*%
X111068600Y-84327600D03*
%TO.P,U1,26,GPIO26*%
%TO.N,/GEN_2*%
X111918600Y-84327600D03*
%TO.P,U1,27,GPIO47/SPICLK_P/SUBSPICLK_P_DIFF*%
%TO.N,unconnected-(U1-GPIO47{slash}SPICLK_P{slash}SUBSPICLK_P_DIFF-Pad27)*%
X112768600Y-84327600D03*
%TO.P,U1,28,SPIIO4/GPIO33/FSPIHD/SUBSPIHD*%
%TO.N,unconnected-(U1-SPIIO4{slash}GPIO33{slash}FSPIHD{slash}SUBSPIHD-Pad28)*%
X113618600Y-84327600D03*
%TO.P,U1,29,SPIIO5/GPIO34/FSPICS0/SUBSPICS0*%
%TO.N,unconnected-(U1-SPIIO5{slash}GPIO34{slash}FSPICS0{slash}SUBSPICS0-Pad29)*%
X114468600Y-84327600D03*
%TO.P,U1,30,GPIO48/SPICLK_N/SUBSPICLK_N_DIFF*%
%TO.N,unconnected-(U1-GPIO48{slash}SPICLK_N{slash}SUBSPICLK_N_DIFF-Pad30)*%
X115318600Y-84327600D03*
D20*
%TO.P,U1,31,SPIIO6/GPIO35/FSPID/SUBSPID*%
%TO.N,unconnected-(U1-SPIIO6{slash}GPIO35{slash}FSPID{slash}SUBSPID-Pad31)*%
X116368600Y-83277600D03*
%TO.P,U1,32,SPIIO7/GPIO36/FSPICLK/SUBSPICLK*%
%TO.N,unconnected-(U1-SPIIO7{slash}GPIO36{slash}FSPICLK{slash}SUBSPICLK-Pad32)*%
X116368600Y-82427600D03*
%TO.P,U1,33,SPIDQS/GPIO37/FSPIQ/SUBSPIQ*%
%TO.N,unconnected-(U1-SPIDQS{slash}GPIO37{slash}FSPIQ{slash}SUBSPIQ-Pad33)*%
X116368600Y-81577600D03*
%TO.P,U1,34,GPIO38/FSPIWP/SUBSPIWP*%
%TO.N,unconnected-(U1-GPIO38{slash}FSPIWP{slash}SUBSPIWP-Pad34)*%
X116368600Y-80727600D03*
%TO.P,U1,35,MTCK/GPIO39/CLK_OUT3/SUBSPICS1*%
%TO.N,unconnected-(U1-MTCK{slash}GPIO39{slash}CLK_OUT3{slash}SUBSPICS1-Pad35)*%
X116368600Y-79877600D03*
%TO.P,U1,36,MTDO/GPIO40/CLK_OUT2*%
%TO.N,unconnected-(U1-MTDO{slash}GPIO40{slash}CLK_OUT2-Pad36)*%
X116368600Y-79027600D03*
%TO.P,U1,37,MTDI/GPIO41/CLK_OUT1*%
%TO.N,unconnected-(U1-MTDI{slash}GPIO41{slash}CLK_OUT1-Pad37)*%
X116368600Y-78177600D03*
%TO.P,U1,38,MTMS/GPIO42*%
%TO.N,unconnected-(U1-MTMS{slash}GPIO42-Pad38)*%
X116368600Y-77327600D03*
%TO.P,U1,39,U0TXD/GPIO43/CLK_OUT1*%
%TO.N,/U0_TX*%
X116368600Y-76477600D03*
%TO.P,U1,40,U0RXD/GPIO44/CLK_OUT2*%
%TO.N,/U0_RX*%
X116368600Y-75627600D03*
%TO.P,U1,41,GPIO45*%
%TO.N,/STRAP_45*%
X116368600Y-74777600D03*
%TO.P,U1,42,GND*%
%TO.N,GND*%
X116368600Y-73927600D03*
%TO.P,U1,43,GND*%
X116368600Y-73077600D03*
%TO.P,U1,44,GPIO46*%
%TO.N,/STRAP_46*%
X116368600Y-72227600D03*
%TO.P,U1,45,EN*%
%TO.N,/ESP_RESET*%
X116368600Y-71377600D03*
D21*
%TO.P,U1,46,GND*%
%TO.N,GND*%
X115318600Y-70327600D03*
%TO.P,U1,47,GND*%
X114468600Y-70327600D03*
%TO.P,U1,48,GND*%
X113618600Y-70327600D03*
%TO.P,U1,49,GND*%
X112768600Y-70327600D03*
%TO.P,U1,50,GND*%
X111918600Y-70327600D03*
%TO.P,U1,51,GND*%
X111068600Y-70327600D03*
%TO.P,U1,52,GND*%
X110218600Y-70327600D03*
%TO.P,U1,53,GND*%
X109368600Y-70327600D03*
%TO.P,U1,54,GND*%
X108518600Y-70327600D03*
%TO.P,U1,55,GND*%
X107668600Y-70327600D03*
%TO.P,U1,56,GND*%
X106818600Y-70327600D03*
%TO.P,U1,57,GND*%
X105968600Y-70327600D03*
%TO.P,U1,58,GND*%
X105118600Y-70327600D03*
%TO.P,U1,59,GND*%
X104268600Y-70327600D03*
%TO.P,U1,60,GND*%
X103418600Y-70327600D03*
D22*
%TO.P,U1,61,GND*%
X107718600Y-75677600D03*
D23*
X107718600Y-77327600D03*
X107718600Y-78977600D03*
X109368600Y-75677600D03*
X109368600Y-77327600D03*
X109368600Y-78977600D03*
X111018600Y-75677600D03*
X111018600Y-77327600D03*
X111018600Y-78977600D03*
D14*
%TO.P,U1,62,GND*%
X102368600Y-70327600D03*
%TO.P,U1,63,GND*%
X102368600Y-84327600D03*
%TO.P,U1,64,GND*%
X116368600Y-84327600D03*
%TO.P,U1,65,GND*%
X116368600Y-70327600D03*
%TD*%
D24*
%TO.P,ESP_RESET,1,1*%
%TO.N,GND*%
X109982000Y-94691200D03*
%TO.P,ESP_RESET,2,2*%
%TO.N,/ESP_RESET*%
X105622000Y-94691200D03*
%TD*%
D11*
%TO.P,R5,1*%
%TO.N,/SHIELD*%
X135951500Y-104300000D03*
%TO.P,R5,2*%
%TO.N,GND*%
X137776500Y-104300000D03*
%TD*%
D13*
%TO.P,D2,1,C*%
%TO.N,/V_INPUT*%
X126414000Y-90678000D03*
%TO.P,D2,2,A*%
%TO.N,/VBUS*%
X129794000Y-90678000D03*
%TD*%
D11*
%TO.P,R3,1*%
%TO.N,/LED_EN*%
X112841500Y-86715600D03*
%TO.P,R3,2*%
%TO.N,Net-(LED2-A)*%
X114666500Y-86715600D03*
%TD*%
D14*
%TO.P,LED1,1,K*%
%TO.N,GND*%
X121412000Y-99060000D03*
%TO.P,LED1,2,A*%
%TO.N,Net-(LED1-A)*%
X123012000Y-99060000D03*
%TD*%
D15*
%TO.P,TP4,1,1*%
%TO.N,/BOOT0*%
X111400000Y-102100000D03*
%TD*%
D13*
%TO.P,D3,1,C*%
%TO.N,/ESP_RESET*%
X105542800Y-91690000D03*
%TO.P,D3,2,A*%
%TO.N,GND*%
X108922800Y-91690000D03*
%TD*%
D16*
%TO.P,R1,1*%
%TO.N,/VBUS*%
X127000000Y-99060000D03*
%TO.P,R1,2*%
%TO.N,Net-(LED1-A)*%
X125175000Y-99060000D03*
%TD*%
D25*
%TO.P,BAT,1,1*%
%TO.N,VCC*%
X136855200Y-83616800D03*
%TD*%
D16*
%TO.P,R10,1*%
%TO.N,/MEAS_EN*%
X99359100Y-83769200D03*
%TO.P,R10,2*%
%TO.N,Net-(Q2-G)*%
X97534100Y-83769200D03*
%TD*%
D11*
%TO.P,R4,1*%
%TO.N,GND*%
X127357500Y-94030800D03*
%TO.P,R4,2*%
%TO.N,Net-(USB1-CC2)*%
X129182500Y-94030800D03*
%TD*%
D16*
%TO.P,R6,1*%
%TO.N,+3.3V*%
X107444500Y-87071200D03*
%TO.P,R6,2*%
%TO.N,/ESP_RESET*%
X105619500Y-87071200D03*
%TD*%
D19*
%TO.P,FID3,*%
%TO.N,*%
X91610000Y-68870000D03*
%TD*%
D10*
%TO.P,C1,1*%
%TO.N,/SHIELD*%
X133750000Y-104300000D03*
%TO.P,C1,2*%
%TO.N,GND*%
X131850000Y-104300000D03*
%TD*%
D26*
%TO.P,H2,1,1*%
%TO.N,GND*%
X135300000Y-108400000D03*
%TD*%
D11*
%TO.P,R17,1*%
%TO.N,/STRAP_46*%
X121060200Y-77266800D03*
%TO.P,R17,2*%
%TO.N,GND*%
X122885200Y-77266800D03*
%TD*%
D27*
%TO.P,USB1,*%
%TO.N,*%
X132945000Y-99310000D03*
X132945000Y-93530000D03*
D28*
%TO.P,USB1,1,GND*%
%TO.N,GND*%
X131865000Y-99620000D03*
%TO.P,USB1,2,VBUS*%
%TO.N,/VBUS*%
X131865000Y-98820000D03*
D29*
%TO.P,USB1,3,SBU2*%
%TO.N,unconnected-(USB1-SBU2-Pad3)*%
X131865000Y-98170000D03*
%TO.P,USB1,4,CC1*%
%TO.N,Net-(USB1-CC1)*%
X131865000Y-97670000D03*
%TO.P,USB1,5,DN2*%
%TO.N,/D-*%
X131865000Y-97170000D03*
%TO.P,USB1,6,DP1*%
%TO.N,/D+*%
X131865000Y-96670000D03*
%TO.P,USB1,7,DN1*%
%TO.N,/D-*%
X131865000Y-96170000D03*
%TO.P,USB1,8,DP2*%
%TO.N,/D+*%
X131865000Y-95670000D03*
%TO.P,USB1,9,SBU1*%
%TO.N,unconnected-(USB1-SBU1-Pad9)*%
X131865000Y-95170000D03*
%TO.P,USB1,10,CC2*%
%TO.N,Net-(USB1-CC2)*%
X131865000Y-94670000D03*
D28*
%TO.P,USB1,11,VBUS*%
%TO.N,/VBUS*%
X131865000Y-94020000D03*
%TO.P,USB1,12,GND*%
%TO.N,GND*%
X131865000Y-93220000D03*
D30*
%TO.P,USB1,13,SHELL*%
%TO.N,/SHIELD*%
X132415000Y-100740000D03*
D31*
X136625000Y-100740000D03*
D30*
%TO.P,USB1,14,SHELL*%
X132415000Y-92100000D03*
D31*
X136625000Y-92100000D03*
%TD*%
D15*
%TO.P,TP1,1,1*%
%TO.N,/VBUS*%
X129000000Y-102400000D03*
%TD*%
D16*
%TO.P,R12,1*%
%TO.N,Net-(Q2-G)*%
X99361000Y-81635600D03*
%TO.P,R12,2*%
%TO.N,GND*%
X97536000Y-81635600D03*
%TD*%
D15*
%TO.P,TP3,1,1*%
%TO.N,/ESP_RESET*%
X102400000Y-94600000D03*
%TD*%
D11*
%TO.P,R2,1*%
%TO.N,GND*%
X121515500Y-96520000D03*
%TO.P,R2,2*%
%TO.N,Net-(USB1-CC1)*%
X123340500Y-96520000D03*
%TD*%
D15*
%TO.P,TP7,1,1*%
%TO.N,/EN*%
X90800000Y-93400000D03*
%TD*%
D32*
%TO.P,Q1,1,G*%
%TO.N,/EN*%
X91829300Y-85121000D03*
%TO.P,Q1,2,S*%
%TO.N,/V_INPUT*%
X89929300Y-85121000D03*
%TO.P,Q1,3,D*%
%TO.N,Net-(Q1-D)*%
X90879300Y-87321000D03*
%TD*%
D11*
%TO.P,R15,1*%
%TO.N,+3.3V*%
X93468200Y-88950800D03*
%TO.P,R15,2*%
%TO.N,Net-(Q3-S)*%
X95293200Y-88950800D03*
%TD*%
D26*
%TO.P,H3,1,1*%
%TO.N,GND*%
X86868000Y-107188000D03*
%TD*%
D25*
%TO.P,REED_G1,1,1*%
%TO.N,GND*%
X117200000Y-107400000D03*
%TD*%
D10*
%TO.P,C5,1*%
%TO.N,+3.3V*%
X122896800Y-86265800D03*
%TO.P,C5,2*%
%TO.N,GND*%
X120996800Y-86265800D03*
%TD*%
D26*
%TO.P,H4,1,1*%
%TO.N,GND*%
X86868000Y-69088000D03*
%TD*%
D33*
%TO.P,Q2,1,G*%
%TO.N,Net-(Q2-G)*%
X95451300Y-83748400D03*
%TO.P,Q2,2,S*%
%TO.N,GND*%
X95451300Y-82448400D03*
%TO.P,Q2,3,D*%
%TO.N,/EN*%
X93651300Y-83098400D03*
%TD*%
D24*
%TO.P,BOOT0,1,1*%
%TO.N,GND*%
X118211600Y-99822000D03*
%TO.P,BOOT0,2,2*%
%TO.N,/BOOT0*%
X113851600Y-99822000D03*
%TD*%
D15*
%TO.P,TP11,1,1*%
%TO.N,/REED*%
X109200000Y-110400000D03*
%TD*%
D10*
%TO.P,C8,1*%
%TO.N,/V_SENSE*%
X100006200Y-78181200D03*
%TO.P,C8,2*%
%TO.N,GND*%
X98106200Y-78181200D03*
%TD*%
%TO.P,C4,1*%
%TO.N,/V_INPUT*%
X122902000Y-81621600D03*
%TO.P,C4,2*%
%TO.N,GND*%
X121002000Y-81621600D03*
%TD*%
D15*
%TO.P,TP6,1,1*%
%TO.N,/V_INPUT*%
X87900000Y-90800000D03*
%TD*%
D25*
%TO.P,REED_OUT1,1,1*%
%TO.N,/REED*%
X113300000Y-107400000D03*
%TD*%
D34*
%TO.P,L1,1,1*%
%TO.N,/USB_D-*%
X123144800Y-93211600D03*
%TO.P,L1,2,2*%
%TO.N,/USB_D-_FIL*%
X121304800Y-93211600D03*
%TO.P,L1,3,3*%
%TO.N,/USB_D+_FIL*%
X121304800Y-92411600D03*
%TO.P,L1,4,4*%
%TO.N,/USB_D+*%
X123144800Y-92411600D03*
%TD*%
D35*
%TO.P,SW3,1,1*%
%TO.N,/V_INPUT*%
X126700000Y-76100000D03*
%TO.P,SW3,2,2*%
%TO.N,VCC*%
X131400000Y-76100000D03*
%TO.P,SW3,3,3*%
%TO.N,unconnected-(SW3-Pad3)*%
X136100000Y-76100000D03*
%TD*%
D25*
%TO.P,GND,1,1*%
%TO.N,GND*%
X136855200Y-87223600D03*
%TD*%
D36*
%TO.P,U2,1,IN*%
%TO.N,/V_INPUT*%
X125730000Y-81556800D03*
%TO.P,U2,2,GND*%
%TO.N,GND*%
X125730000Y-83856800D03*
%TO.P,U2,3,OUT*%
%TO.N,+3.3V*%
X125730000Y-86156800D03*
D37*
%TO.P,U2,4,GND*%
%TO.N,GND*%
X131670000Y-83856800D03*
%TD*%
D16*
%TO.P,R11,1*%
%TO.N,/V_SENSE*%
X95396700Y-80264000D03*
%TO.P,R11,2*%
%TO.N,GND*%
X93571700Y-80264000D03*
%TD*%
%TO.P,R7,1*%
%TO.N,+3.3V*%
X115677900Y-92026100D03*
%TO.P,R7,2*%
%TO.N,/BOOT0*%
X113852900Y-92026100D03*
%TD*%
D12*
%TO.P,C6,1*%
%TO.N,/ESP_RESET*%
X105597200Y-89408000D03*
%TO.P,C6,2*%
%TO.N,GND*%
X107497200Y-89408000D03*
%TD*%
D38*
%TO.P,H1,1,1*%
%TO.N,+3.3V*%
X124307600Y-68529200D03*
D39*
%TO.P,H1,2,2*%
%TO.N,GND*%
X126847600Y-68529200D03*
%TO.P,H1,3,3*%
%TO.N,/U0_RX*%
X129387600Y-68529200D03*
%TO.P,H1,4,4*%
%TO.N,/U0_TX*%
X131927600Y-68529200D03*
%TO.P,H1,5,5*%
%TO.N,/GEN_1*%
X134467600Y-68529200D03*
%TO.P,H1,6,6*%
%TO.N,/GEN_2*%
X137007600Y-68529200D03*
%TD*%
D11*
%TO.P,R13,1*%
%TO.N,+3.3V*%
X93421200Y-76504800D03*
%TO.P,R13,2*%
%TO.N,/STRAP_3*%
X95246200Y-76504800D03*
%TD*%
D40*
%TO.N,*%
X118758400Y-81730883D03*
%TO.N,/SHIELD*%
X131100000Y-101200000D03*
X133500000Y-102850000D03*
X133800000Y-92900000D03*
X135700000Y-92900000D03*
%TO.N,GND*%
X130300000Y-99800000D03*
X119300000Y-99700000D03*
X117160000Y-94340000D03*
X102300000Y-85000000D03*
X117400000Y-109200000D03*
X107035600Y-77368400D03*
X103733600Y-70827200D03*
X132000000Y-105700000D03*
X120142000Y-81584800D03*
X123800000Y-83700000D03*
X97485200Y-78181200D03*
X133500000Y-83800000D03*
X132300000Y-90400000D03*
X109220000Y-74523600D03*
X120300000Y-99200000D03*
X108508800Y-89408000D03*
X97332800Y-72136000D03*
X120400000Y-96600000D03*
X92811600Y-80314800D03*
X120243600Y-86360000D03*
X113090000Y-71140000D03*
X117246400Y-84378800D03*
X129867252Y-96289508D03*
X111760000Y-77419200D03*
X114270000Y-71090000D03*
X131022331Y-92877669D03*
X92572200Y-74371200D03*
X115340000Y-73420000D03*
X118821200Y-86817200D03*
X104952800Y-70827200D03*
X109931200Y-91694000D03*
X118100000Y-96700000D03*
X124206000Y-79552800D03*
X108305600Y-70827200D03*
X134700000Y-87400000D03*
X124053600Y-77368400D03*
X137700000Y-105500000D03*
X111400000Y-94800000D03*
X127300000Y-93000000D03*
X109423200Y-79908400D03*
X97434400Y-74269600D03*
%TO.N,/V_INPUT*%
X90700000Y-86100000D03*
X90400000Y-90200000D03*
%TO.N,+3.3V*%
X117140000Y-92260000D03*
X117140000Y-92260000D03*
X112580000Y-80360000D03*
X109080000Y-82930000D03*
X112580000Y-80360000D03*
X117140000Y-92260000D03*
X118010000Y-71480000D03*
X113100000Y-93330000D03*
X114270000Y-72700000D03*
X108610000Y-88240000D03*
X100330000Y-70612000D03*
X117910000Y-82870000D03*
%TO.N,/ESP_RESET*%
X104444800Y-87020400D03*
X104698800Y-74523600D03*
%TO.N,/BOOT0*%
X103835200Y-85750400D03*
X103835200Y-74472800D03*
%TO.N,/V_SENSE*%
X91100000Y-78800000D03*
X89900000Y-77600000D03*
%TO.N,/U0_TX*%
X117900000Y-77100000D03*
X120830000Y-74200000D03*
%TO.N,/U0_RX*%
X118110000Y-75590400D03*
X120294400Y-73406000D03*
%TO.N,/GEN_1*%
X115100000Y-79000000D03*
%TO.N,/GEN_2*%
X115100000Y-79850003D03*
%TO.N,/EN*%
X92200000Y-88100000D03*
X91800000Y-92100000D03*
%TO.N,/LED_EN*%
X105477710Y-83460818D03*
X111099600Y-85496400D03*
%TO.N,/REED*%
X100900000Y-84800000D03*
X103318602Y-78900000D03*
X99900000Y-102800000D03*
X99900000Y-105200000D03*
%TD*%
D41*
%TO.N,*%
X127355000Y-85231800D02*
X123484572Y-85231800D01*
X126500000Y-87200000D02*
X127236800Y-87200000D01*
X127355000Y-87081800D02*
X127355000Y-85231800D01*
X118583400Y-81854628D02*
X118707145Y-81730883D01*
X123484572Y-85231800D02*
X121700972Y-83448200D01*
X118707145Y-81730883D02*
X118758400Y-81730883D01*
X120176972Y-83448200D02*
X118583400Y-81854628D01*
X127236800Y-87200000D02*
X127355000Y-87081800D01*
X121700972Y-83448200D02*
X120176972Y-83448200D01*
%TO.N,/SHIELD*%
X135951500Y-104300000D02*
X135951500Y-101413500D01*
X133000000Y-92100000D02*
X133800000Y-92900000D01*
X133550000Y-102850000D02*
X133750000Y-103050000D01*
X136755500Y-100870500D02*
X136625000Y-100740000D01*
X133500000Y-102850000D02*
X133550000Y-102850000D01*
X132415000Y-100740000D02*
X131560000Y-100740000D01*
X136625000Y-100740000D02*
X136625000Y-92100000D01*
X133750000Y-104300000D02*
X135951500Y-104300000D01*
X131560000Y-100740000D02*
X131100000Y-101200000D01*
X135951500Y-101413500D02*
X136625000Y-100740000D01*
X132415000Y-100919000D02*
X132415000Y-100740000D01*
X132415000Y-92100000D02*
X133000000Y-92100000D01*
X135700000Y-92900000D02*
X135825000Y-92900000D01*
X135825000Y-92900000D02*
X136625000Y-92100000D01*
X133750000Y-103050000D02*
X133750000Y-104300000D01*
D42*
%TO.N,GND*%
X110218600Y-70327600D02*
X111068600Y-70327600D01*
D41*
X95048400Y-82448400D02*
X93571700Y-80971700D01*
X111018600Y-77327600D02*
X111668400Y-77327600D01*
X107718600Y-78977600D02*
X109677200Y-78977600D01*
D42*
X102300000Y-84396200D02*
X102368600Y-84327600D01*
D41*
X121412000Y-99060000D02*
X120440000Y-99060000D01*
D42*
X132100000Y-89300000D02*
X132100000Y-90200000D01*
D41*
X109372400Y-75031600D02*
X109368600Y-75035400D01*
D42*
X103418600Y-70327600D02*
X103418600Y-70512200D01*
X134876400Y-87223600D02*
X134700000Y-87400000D01*
X112471200Y-70327600D02*
X112768600Y-70327600D01*
D41*
X93571700Y-80971700D02*
X93571700Y-80264000D01*
X111018600Y-78977600D02*
X111018600Y-77327600D01*
X120440000Y-99060000D02*
X120300000Y-99200000D01*
X137776500Y-105423500D02*
X137700000Y-105500000D01*
D42*
X102368600Y-71377600D02*
X102368600Y-70327600D01*
D41*
X109368600Y-79853800D02*
X109423200Y-79908400D01*
D42*
X105118600Y-70661400D02*
X104952800Y-70827200D01*
D41*
X92724600Y-74218800D02*
X92572200Y-74371200D01*
X124155200Y-79502000D02*
X124206000Y-79552800D01*
D42*
X130480000Y-99620000D02*
X130300000Y-99800000D01*
D41*
X107718600Y-78977600D02*
X107718600Y-77327600D01*
D42*
X93571700Y-80264000D02*
X92862400Y-80264000D01*
X114468600Y-70891400D02*
X114270000Y-71090000D01*
X117086300Y-94413700D02*
X117160000Y-94340000D01*
D41*
X96365700Y-82448400D02*
X95451300Y-82448400D01*
X127357500Y-93057500D02*
X127300000Y-93000000D01*
X109368600Y-77327600D02*
X109368600Y-75677600D01*
X109368600Y-78977600D02*
X109368600Y-77327600D01*
X109677200Y-78977600D02*
X111018600Y-78977600D01*
X109368600Y-74672200D02*
X109220000Y-74523600D01*
X122885200Y-77266800D02*
X123952000Y-77266800D01*
D42*
X108254800Y-70327600D02*
X109368600Y-70327600D01*
D41*
X97536000Y-81635600D02*
X97178500Y-81635600D01*
D42*
X109368600Y-70327600D02*
X110218600Y-70327600D01*
D41*
X93421200Y-74218800D02*
X92724600Y-74218800D01*
X98121400Y-74269600D02*
X97434400Y-74269600D01*
X119178000Y-99822000D02*
X119300000Y-99700000D01*
X109368600Y-75677600D02*
X111018600Y-75677600D01*
X111291200Y-94691200D02*
X111400000Y-94800000D01*
X95451300Y-82448400D02*
X95048400Y-82448400D01*
D42*
X108254800Y-70327600D02*
X108518600Y-70327600D01*
D41*
X129636760Y-96520000D02*
X129867252Y-96289508D01*
D42*
X136855200Y-87223600D02*
X134876400Y-87223600D01*
D41*
X127357500Y-94030800D02*
X127357500Y-93057500D01*
X118211600Y-99822000D02*
X119178000Y-99822000D01*
D42*
X133443200Y-83856800D02*
X133500000Y-83800000D01*
D41*
X107076400Y-77327600D02*
X107035600Y-77368400D01*
X109368600Y-75677600D02*
X109368600Y-75035400D01*
X131850000Y-105550000D02*
X132000000Y-105700000D01*
X107718600Y-75677600D02*
X109368600Y-75677600D01*
X108922800Y-91690000D02*
X109927200Y-91690000D01*
D42*
X117200000Y-109000000D02*
X117400000Y-109200000D01*
X102368600Y-72227600D02*
X102368600Y-71377600D01*
X106818600Y-70327600D02*
X107391200Y-70327600D01*
X116368600Y-84327600D02*
X117195200Y-84327600D01*
X108518600Y-70614200D02*
X108305600Y-70827200D01*
D41*
X109368600Y-78977600D02*
X109677200Y-78977600D01*
D42*
X117195200Y-84327600D02*
X117246400Y-84378800D01*
X120337800Y-86265800D02*
X120243600Y-86360000D01*
D41*
X111668400Y-77327600D02*
X111760000Y-77419200D01*
D42*
X114468600Y-70327600D02*
X115318600Y-70327600D01*
X111918600Y-70327600D02*
X112471200Y-70327600D01*
X131865000Y-99620000D02*
X130480000Y-99620000D01*
D41*
X109982000Y-94691200D02*
X111291200Y-94691200D01*
D42*
X125730000Y-83856800D02*
X123956800Y-83856800D01*
X114468600Y-70327600D02*
X114468600Y-70891400D01*
X108518600Y-70327600D02*
X108518600Y-70614200D01*
D41*
X107718600Y-77327600D02*
X107718600Y-75677600D01*
X123952000Y-77266800D02*
X124053600Y-77368400D01*
D42*
X105118600Y-70327600D02*
X105118600Y-70661400D01*
X103418600Y-70327600D02*
X104268600Y-70327600D01*
X102300000Y-85000000D02*
X102300000Y-84396200D01*
D41*
X121515500Y-96520000D02*
X120480000Y-96520000D01*
D42*
X105968600Y-70327600D02*
X106818600Y-70327600D01*
D41*
X111018600Y-75677600D02*
X111018600Y-77327600D01*
X107718600Y-77327600D02*
X107076400Y-77327600D01*
X109368600Y-77327600D02*
X111018600Y-77327600D01*
X118719600Y-86715600D02*
X118821200Y-86817200D01*
D42*
X132100000Y-90200000D02*
X132300000Y-90400000D01*
X104268600Y-70327600D02*
X105118600Y-70327600D01*
X131865000Y-93220000D02*
X131753000Y-93220000D01*
D41*
X118026000Y-96774000D02*
X118100000Y-96700000D01*
D42*
X115318600Y-70327600D02*
X116368600Y-70327600D01*
D41*
X120178800Y-81621600D02*
X120142000Y-81584800D01*
D42*
X92862400Y-80264000D02*
X92811600Y-80314800D01*
X111068600Y-70327600D02*
X111918600Y-70327600D01*
X113618600Y-70327600D02*
X114468600Y-70327600D01*
X117200000Y-107400000D02*
X117200000Y-109000000D01*
D41*
X109927200Y-91690000D02*
X109931200Y-91694000D01*
D42*
X102368600Y-70327600D02*
X103418600Y-70327600D01*
D41*
X118110000Y-86715600D02*
X118719600Y-86715600D01*
X97383600Y-72085200D02*
X97332800Y-72136000D01*
D42*
X123956800Y-83856800D02*
X123800000Y-83700000D01*
X105118600Y-70327600D02*
X105968600Y-70327600D01*
X98106200Y-78181200D02*
X97485200Y-78181200D01*
X113090000Y-71140000D02*
X112768600Y-70818600D01*
D41*
X131850000Y-104300000D02*
X131850000Y-105550000D01*
X109368600Y-78977600D02*
X109368600Y-79853800D01*
D42*
X131670000Y-83856800D02*
X133443200Y-83856800D01*
X107391200Y-70327600D02*
X108254800Y-70327600D01*
D41*
X121002000Y-81621600D02*
X120178800Y-81621600D01*
D42*
X107391200Y-70327600D02*
X107668600Y-70327600D01*
X116368600Y-73077600D02*
X116368600Y-73927600D01*
X131865000Y-93220000D02*
X131364662Y-93220000D01*
X115781400Y-94413700D02*
X117086300Y-94413700D01*
D41*
X107718600Y-77327600D02*
X109368600Y-77327600D01*
X97178500Y-81635600D02*
X96365700Y-82448400D01*
D42*
X112471200Y-70327600D02*
X113618600Y-70327600D01*
D41*
X107497200Y-89408000D02*
X108508800Y-89408000D01*
D42*
X131364662Y-93220000D02*
X131022331Y-92877669D01*
X103418600Y-70512200D02*
X103733600Y-70827200D01*
X115340000Y-73420000D02*
X115682400Y-73077600D01*
D41*
X109368600Y-75035400D02*
X109368600Y-74672200D01*
D42*
X120996800Y-86265800D02*
X120337800Y-86265800D01*
X112768600Y-70818600D02*
X112768600Y-70327600D01*
D41*
X129032000Y-96520000D02*
X129636760Y-96520000D01*
X120480000Y-96520000D02*
X120400000Y-96600000D01*
X137776500Y-104300000D02*
X137776500Y-105423500D01*
X98121400Y-72085200D02*
X97383600Y-72085200D01*
X122881400Y-79502000D02*
X124155200Y-79502000D01*
X117264400Y-96774000D02*
X118026000Y-96774000D01*
D42*
X115682400Y-73077600D02*
X116368600Y-73077600D01*
%TO.N,/V_INPUT*%
X128828800Y-88493600D02*
X129332939Y-88493600D01*
X130050000Y-103750000D02*
X95650000Y-103750000D01*
X89929300Y-85121000D02*
X89929300Y-85329300D01*
X131700000Y-102100000D02*
X130050000Y-103750000D01*
X134800000Y-91800000D02*
X134800000Y-102100000D01*
X128524000Y-88798400D02*
X128828800Y-88493600D01*
X87900000Y-96000000D02*
X87900000Y-90800000D01*
X131940000Y-91130000D02*
X131960000Y-91150000D01*
X128828800Y-82042000D02*
X128343600Y-81556800D01*
X134800000Y-102100000D02*
X131700000Y-102100000D01*
X90400000Y-90200000D02*
X88500000Y-90200000D01*
D41*
X89916000Y-83108800D02*
X89916000Y-85107700D01*
D42*
X122966800Y-81556800D02*
X122902000Y-81621600D01*
X126414000Y-90678000D02*
X126414000Y-89790800D01*
X127406400Y-88798400D02*
X128524000Y-88798400D01*
X134150000Y-91150000D02*
X134800000Y-91800000D01*
D41*
X89916000Y-85107700D02*
X89929300Y-85121000D01*
D42*
X89929300Y-85329300D02*
X90700000Y-86100000D01*
X126414000Y-89790800D02*
X127406400Y-88798400D01*
X128828800Y-88493600D02*
X128828800Y-82042000D01*
X125730000Y-81556800D02*
X125730000Y-77070000D01*
X125730000Y-77070000D02*
X126700000Y-76100000D01*
X125730000Y-81556800D02*
X122966800Y-81556800D01*
X131960000Y-91150000D02*
X134150000Y-91150000D01*
X131940000Y-91100661D02*
X131940000Y-91130000D01*
X128343600Y-81556800D02*
X125730000Y-81556800D01*
X88500000Y-90200000D02*
X87900000Y-90800000D01*
X95650000Y-103750000D02*
X87900000Y-96000000D01*
X129332939Y-88493600D02*
X131940000Y-91100661D01*
D41*
%TO.N,+3.3V*%
X126441200Y-95351600D02*
X126136400Y-95046800D01*
X92121740Y-76504800D02*
X92405200Y-76504800D01*
X92405200Y-76504800D02*
X91897200Y-75996800D01*
X128320800Y-95808800D02*
X127863600Y-95351600D01*
X107444500Y-87071200D02*
X107444500Y-87221010D01*
X127592000Y-96520000D02*
X128066800Y-96520000D01*
D42*
X117910000Y-82870000D02*
X118785600Y-82870000D01*
D41*
X88138000Y-86114700D02*
X88138000Y-80488540D01*
X126154200Y-95029000D02*
X126154200Y-92321400D01*
D42*
X100021400Y-74269600D02*
X100021400Y-73964800D01*
D41*
X125730000Y-87630000D02*
X125730000Y-86156800D01*
X108481200Y-87071200D02*
X112580000Y-91170000D01*
D42*
X100021400Y-73964800D02*
X100908600Y-73077600D01*
D41*
X115911800Y-92260000D02*
X115677900Y-92026100D01*
X100021400Y-71268600D02*
X100021400Y-72085200D01*
X112580000Y-92810000D02*
X113100000Y-93330000D01*
D42*
X121462800Y-84023200D02*
X122896800Y-85457200D01*
D41*
X128066800Y-96520000D02*
X128320800Y-96266000D01*
X107444500Y-87071200D02*
X107444500Y-87684500D01*
D42*
X100330000Y-70612000D02*
X100330000Y-71776600D01*
D41*
X88138000Y-80488540D02*
X92121740Y-76504800D01*
D42*
X100021400Y-72085200D02*
X100986600Y-73050400D01*
D41*
X127863600Y-95351600D02*
X126441200Y-95351600D01*
X92354400Y-70815200D02*
X99568000Y-70815200D01*
X112580000Y-80360000D02*
X111650000Y-80360000D01*
D42*
X118785600Y-82870000D02*
X119938800Y-84023200D01*
D41*
X117140000Y-92260000D02*
X115911800Y-92260000D01*
D42*
X101013800Y-73077600D02*
X102368600Y-73077600D01*
X123005800Y-86156800D02*
X122896800Y-86265800D01*
D41*
X108000000Y-88240000D02*
X108610000Y-88240000D01*
X125374400Y-91541600D02*
X125374400Y-87985600D01*
D42*
X122896800Y-85457200D02*
X122896800Y-86265800D01*
X124307600Y-68529200D02*
X124307600Y-68992400D01*
X100908600Y-73077600D02*
X101013800Y-73077600D01*
D41*
X128320800Y-96266000D02*
X128320800Y-95808800D01*
D42*
X119938800Y-84023200D02*
X121462800Y-84023200D01*
D41*
X93421200Y-76504800D02*
X92405200Y-76504800D01*
X107950000Y-88190000D02*
X108000000Y-88240000D01*
X126136400Y-95046800D02*
X126154200Y-95029000D01*
D42*
X124307600Y-68992400D02*
X121300000Y-72000000D01*
D41*
X107444500Y-87684500D02*
X107950000Y-88190000D01*
X112580000Y-91170000D02*
X112580000Y-92810000D01*
X91897200Y-71272400D02*
X92354400Y-70815200D01*
X107444500Y-87071200D02*
X108481200Y-87071200D01*
X93468200Y-88950800D02*
X90974100Y-88950800D01*
X126154200Y-92321400D02*
X125374400Y-91541600D01*
D42*
X100986600Y-73050400D02*
X101013800Y-73077600D01*
D41*
X111650000Y-80360000D02*
X109080000Y-82930000D01*
D42*
X100330000Y-71776600D02*
X100021400Y-72085200D01*
D41*
X90974100Y-88950800D02*
X88138000Y-86114700D01*
X125374400Y-87985600D02*
X125730000Y-87630000D01*
X99568000Y-70815200D02*
X100021400Y-71268600D01*
D42*
X125730000Y-86156800D02*
X123005800Y-86156800D01*
X120780000Y-71480000D02*
X118010000Y-71480000D01*
X121300000Y-72000000D02*
X120780000Y-71480000D01*
D41*
X91897200Y-75996800D02*
X91897200Y-71272400D01*
%TO.N,/ESP_RESET*%
X104698800Y-74523600D02*
X107238800Y-71983600D01*
X105542800Y-89462400D02*
X105597200Y-89408000D01*
X115617200Y-71377600D02*
X116368600Y-71377600D01*
X105619500Y-87071200D02*
X104495600Y-87071200D01*
X115011200Y-71983600D02*
X115617200Y-71377600D01*
X102400000Y-94600000D02*
X105530800Y-94600000D01*
X105530800Y-94600000D02*
X105622000Y-94691200D01*
X105597200Y-89408000D02*
X105597200Y-87093500D01*
X105622000Y-94691200D02*
X105622000Y-91769200D01*
X107238800Y-71983600D02*
X115011200Y-71983600D01*
X105622000Y-91769200D02*
X105542800Y-91690000D01*
X105542800Y-91690000D02*
X105542800Y-89462400D01*
X104495600Y-87071200D02*
X104444800Y-87020400D01*
X105597200Y-87093500D02*
X105619500Y-87071200D01*
%TO.N,/BOOT0*%
X113852900Y-91504993D02*
X108098307Y-85750400D01*
X113884400Y-96774000D02*
X113884400Y-94416700D01*
X111400000Y-102100000D02*
X113678000Y-99822000D01*
X103290000Y-73927600D02*
X102368600Y-73927600D01*
X108098307Y-85750400D02*
X103835200Y-85750400D01*
X103835200Y-74472800D02*
X103290000Y-73927600D01*
X113851600Y-99822000D02*
X113851600Y-96806800D01*
X113852900Y-92026100D02*
X113852900Y-91504993D01*
X113678000Y-99822000D02*
X113851600Y-99822000D01*
X113851600Y-96806800D02*
X113884400Y-96774000D01*
X113884400Y-94416700D02*
X113881400Y-94413700D01*
X113852900Y-94385200D02*
X113881400Y-94413700D01*
X113852900Y-92026100D02*
X113852900Y-94385200D01*
%TO.N,/V_SENSE*%
X88470000Y-76170000D02*
X89900000Y-77600000D01*
X100006200Y-78181200D02*
X100478600Y-78181200D01*
X91741000Y-80313850D02*
X91741000Y-79502000D01*
X101332200Y-77327600D02*
X102368600Y-77327600D01*
X95398600Y-80265900D02*
X95396700Y-80264000D01*
X91741000Y-79502000D02*
X92401400Y-78841600D01*
X95396700Y-79449300D02*
X95396700Y-80264000D01*
X87440000Y-76170000D02*
X88470000Y-76170000D01*
X95396700Y-80264000D02*
X99310200Y-80264000D01*
X92401400Y-78841600D02*
X94789000Y-78841600D01*
X100006200Y-79568000D02*
X100006200Y-78181200D01*
X99310200Y-80264000D02*
X100006200Y-79568000D01*
X91741000Y-80313850D02*
X91741000Y-79441000D01*
X100478600Y-78181200D02*
X101332200Y-77327600D01*
X91741000Y-79441000D02*
X91100000Y-78800000D01*
X94789000Y-78841600D02*
X95396700Y-79449300D01*
D43*
%TO.N,/D-*%
X130906000Y-96170000D02*
X130556000Y-96520000D01*
X130556000Y-97028000D02*
X130698000Y-97170000D01*
X130556000Y-96520000D02*
X130556000Y-97028000D01*
X131865000Y-96170000D02*
X130906000Y-96170000D01*
X130698000Y-97170000D02*
X131865000Y-97170000D01*
X130056000Y-97020000D02*
X130556000Y-96520000D01*
X129032000Y-97020000D02*
X130056000Y-97020000D01*
%TO.N,/D+*%
X133096000Y-96520000D02*
X133096000Y-96012000D01*
X133096000Y-96012000D02*
X132754000Y-95670000D01*
X129032000Y-96020000D02*
X129217521Y-96020000D01*
X131865000Y-96670000D02*
X132946000Y-96670000D01*
X132754000Y-95670000D02*
X131865000Y-95670000D01*
X129032000Y-95768000D02*
X129160492Y-95639508D01*
X131834508Y-95639508D02*
X131865000Y-95670000D01*
X129160492Y-95639508D02*
X131834508Y-95639508D01*
X132946000Y-96670000D02*
X133096000Y-96520000D01*
X129032000Y-96020000D02*
X129032000Y-95768000D01*
%TO.N,/USB_D+*%
X125628400Y-93268800D02*
X124771200Y-92411600D01*
X125628400Y-95210552D02*
X125628400Y-93268800D01*
X127592000Y-96020000D02*
X126437848Y-96020000D01*
X126437848Y-96020000D02*
X125628400Y-95210552D01*
X124771200Y-92411600D02*
X123144800Y-92411600D01*
%TO.N,/USB_D-*%
X126768600Y-97068400D02*
X125816361Y-97068400D01*
X127592000Y-97020000D02*
X126817000Y-97020000D01*
X124460000Y-95712039D02*
X124460000Y-93421200D01*
X124250400Y-93211600D02*
X123144800Y-93211600D01*
X125816361Y-97068400D02*
X124460000Y-95712039D01*
X126817000Y-97020000D02*
X126768600Y-97068400D01*
X124460000Y-93421200D02*
X124250400Y-93211600D01*
D42*
%TO.N,/VBUS*%
X132513629Y-98610000D02*
X133546000Y-98610000D01*
X134112000Y-98044000D02*
X134112000Y-95828371D01*
X131865000Y-98820000D02*
X132303629Y-98820000D01*
X130200000Y-93116000D02*
X130200000Y-91084000D01*
X131865000Y-94020000D02*
X131104000Y-94020000D01*
X133546000Y-98610000D02*
X134112000Y-98044000D01*
X129272000Y-98820000D02*
X129032000Y-99060000D01*
X132303629Y-98820000D02*
X132513629Y-98610000D01*
X130200000Y-91084000D02*
X129794000Y-90678000D01*
D41*
X129000000Y-99092000D02*
X129032000Y-99060000D01*
D42*
X134112000Y-95828371D02*
X132303629Y-94020000D01*
D41*
X129000000Y-102400000D02*
X129000000Y-99092000D01*
D42*
X129032000Y-99060000D02*
X127000000Y-99060000D01*
X131865000Y-98820000D02*
X129272000Y-98820000D01*
X132303629Y-94020000D02*
X131865000Y-94020000D01*
X131104000Y-94020000D02*
X130200000Y-93116000D01*
D41*
%TO.N,/U0_TX*%
X117900000Y-77100000D02*
X117277600Y-76477600D01*
X126256800Y-74200000D02*
X120830000Y-74200000D01*
X117277600Y-76477600D02*
X116368600Y-76477600D01*
X131927600Y-68529200D02*
X126256800Y-74200000D01*
%TO.N,/U0_RX*%
X129387600Y-69951600D02*
X125933200Y-73406000D01*
X116405800Y-75590400D02*
X116368600Y-75627600D01*
X125933200Y-73406000D02*
X120294400Y-73406000D01*
X118110000Y-75590400D02*
X116405800Y-75590400D01*
X129387600Y-68529200D02*
X129387600Y-69951600D01*
%TO.N,/GEN_1*%
X111343600Y-83339294D02*
X113090000Y-81592894D01*
X113090000Y-81592894D02*
X113090000Y-80905408D01*
X114995408Y-79000000D02*
X115100000Y-79000000D01*
X111343600Y-84052600D02*
X111343600Y-83339294D01*
X113090000Y-80905408D02*
X114995408Y-79000000D01*
X111068600Y-84327600D02*
X111343600Y-84052600D01*
%TO.N,/GEN_2*%
X115100000Y-79860000D02*
X115100000Y-79850003D01*
X113590000Y-81800000D02*
X113590000Y-81370000D01*
X111918600Y-84327600D02*
X111918600Y-83471400D01*
X111918600Y-83471400D02*
X113590000Y-81800000D01*
X113590000Y-81370000D02*
X115100000Y-79860000D01*
%TO.N,/USB_D-_FIL*%
X116120800Y-89857200D02*
X113672684Y-89857200D01*
X121304800Y-93211600D02*
X119488000Y-93211600D01*
X119488000Y-93211600D02*
X119481600Y-93218000D01*
X109368600Y-85553116D02*
X109368600Y-84327600D01*
X119481600Y-93218000D02*
X116120800Y-89857200D01*
X113672684Y-89857200D02*
X109368600Y-85553116D01*
%TO.N,/USB_D+_FIL*%
X121304800Y-92411600D02*
X119589600Y-92411600D01*
X113879790Y-89357200D02*
X110218600Y-85696010D01*
X116535200Y-89357200D02*
X113879790Y-89357200D01*
X119589600Y-92411600D02*
X116535200Y-89357200D01*
X110218600Y-85696010D02*
X110218600Y-84327600D01*
%TO.N,Net-(LED1-A)*%
X125175000Y-99060000D02*
X123012000Y-99060000D01*
%TO.N,Net-(LED2-A)*%
X114666500Y-86715600D02*
X116510000Y-86715600D01*
%TO.N,/EN*%
X91829300Y-87729300D02*
X92200000Y-88100000D01*
X91800000Y-92100000D02*
X91800000Y-92400000D01*
X91800000Y-92400000D02*
X90800000Y-93400000D01*
X91741000Y-83108800D02*
X91741000Y-85032700D01*
X93640900Y-83108800D02*
X93651300Y-83098400D01*
X91741000Y-85032700D02*
X91829300Y-85121000D01*
X91829300Y-85121000D02*
X91829300Y-87729300D01*
X91741000Y-83108800D02*
X93640900Y-83108800D01*
%TO.N,Net-(Q1-D)*%
X88896200Y-85852900D02*
X88896200Y-81333650D01*
X90364300Y-87321000D02*
X88896200Y-85852900D01*
X88896200Y-81333650D02*
X89916000Y-80313850D01*
X90879300Y-87321000D02*
X90364300Y-87321000D01*
%TO.N,Net-(Q2-G)*%
X99361000Y-81972300D02*
X98600900Y-82732400D01*
X99361000Y-81635600D02*
X99361000Y-81972300D01*
X97534100Y-83167800D02*
X97534100Y-83769200D01*
X95451300Y-83748400D02*
X97513300Y-83748400D01*
X98579100Y-82710600D02*
X97991300Y-82710600D01*
X97513300Y-83748400D02*
X97534100Y-83769200D01*
X98600900Y-82732400D02*
X98579100Y-82710600D01*
X97991300Y-82710600D02*
X97534100Y-83167800D01*
%TO.N,Net-(Q3-S)*%
X93823800Y-87731600D02*
X95144600Y-87731600D01*
X95293200Y-87880200D02*
X95293200Y-88950800D01*
X93415500Y-86918800D02*
X93415500Y-87323300D01*
X93415500Y-87323300D02*
X93823800Y-87731600D01*
X95144600Y-87731600D02*
X95293200Y-87880200D01*
%TO.N,Net-(USB1-CC1)*%
X124490500Y-97670000D02*
X131865000Y-97670000D01*
X123340500Y-96520000D02*
X124490500Y-97670000D01*
%TO.N,/LED_EN*%
X105477710Y-83460818D02*
X105118600Y-83819928D01*
X112318800Y-86715600D02*
X111099600Y-85496400D01*
X112841500Y-86715600D02*
X112318800Y-86715600D01*
X105118600Y-83819928D02*
X105118600Y-84327600D01*
%TO.N,Net-(USB1-CC2)*%
X130302000Y-94030800D02*
X129182500Y-94030800D01*
X131865000Y-94670000D02*
X130941200Y-94670000D01*
X130941200Y-94670000D02*
X130302000Y-94030800D01*
%TO.N,/STRAP_3*%
X102341400Y-76504800D02*
X102368600Y-76477600D01*
X95246200Y-74218800D02*
X95246200Y-76504800D01*
X95246200Y-76504800D02*
X102341400Y-76504800D01*
%TO.N,/STRAP_45*%
X118872000Y-77317600D02*
X118872000Y-75285600D01*
X118364000Y-74777600D02*
X116368600Y-74777600D01*
X121056400Y-79502000D02*
X118872000Y-77317600D01*
X118872000Y-75285600D02*
X118364000Y-74777600D01*
%TO.N,/STRAP_46*%
X119380000Y-76454000D02*
X119380000Y-72796400D01*
X121060200Y-77266800D02*
X120192800Y-77266800D01*
X120192800Y-77266800D02*
X119380000Y-76454000D01*
X116378600Y-72237600D02*
X116368600Y-72227600D01*
X118811200Y-72227600D02*
X116368600Y-72227600D01*
X119380000Y-72796400D02*
X118811200Y-72227600D01*
D42*
%TO.N,VCC*%
X136855200Y-83616800D02*
X136855200Y-80111600D01*
X136194800Y-79451200D02*
X136194800Y-79426800D01*
X136194800Y-79426800D02*
X132868000Y-76100000D01*
X132868000Y-76100000D02*
X131400000Y-76100000D01*
X136855200Y-80111600D02*
X136194800Y-79451200D01*
D41*
%TO.N,/MEAS_EN*%
X101156200Y-79027600D02*
X102368600Y-79027600D01*
X100580200Y-79603600D02*
X101156200Y-79027600D01*
X100580200Y-83007200D02*
X100580200Y-79603600D01*
X99359100Y-83769200D02*
X99818200Y-83769200D01*
X99818200Y-83769200D02*
X100580200Y-83007200D01*
%TO.N,/REED*%
X99900000Y-102800000D02*
X99900000Y-91300000D01*
X113300000Y-107400000D02*
X110300000Y-110400000D01*
X103318602Y-78477602D02*
X103018600Y-78177600D01*
X110300000Y-110400000D02*
X109200000Y-110400000D01*
X99900000Y-91300000D02*
X95615500Y-87015500D01*
X113300000Y-107400000D02*
X102100000Y-107400000D01*
X103018600Y-78177600D02*
X102368600Y-78177600D01*
X95615500Y-87015500D02*
X95615500Y-85968800D01*
X103318602Y-78900000D02*
X103318602Y-78477602D01*
X99731200Y-85968800D02*
X100900000Y-84800000D01*
X102100000Y-107400000D02*
X99900000Y-105200000D01*
X95615500Y-85968800D02*
X99731200Y-85968800D01*
%TO.N,/REED_EN*%
X101718600Y-82427600D02*
X102368600Y-82427600D01*
X101545400Y-82600800D02*
X101718600Y-82427600D01*
X96871800Y-85191600D02*
X99540010Y-85191600D01*
X93415500Y-85018800D02*
X96699000Y-85018800D01*
X96699000Y-85018800D02*
X96871800Y-85191600D01*
X99540010Y-85191600D02*
X101545400Y-83186210D01*
X101545400Y-83186210D02*
X101545400Y-82600800D01*
%TD*%
M02*
