M48
; DRILL file {KiCad 7.0.11+dfsg-1} date Sun 28 Apr 2024 10:15:06 PM CEST
; FORMAT={-:-/ absolute / inch / decimal}
; #@! TF.CreationDate,2024-04-28T22:15:06+02:00
; #@! TF.GenerationSoftware,Kicad,Pcbnew,7.0.11+dfsg-1
; #@! TF.FileFunction,Plated,1,2,PTH
FMAT,2
INCH
; #@! TA.AperFunction,Plated,PTH,ViaDrill
T1C0.0118
; #@! TA.AperFunction,Plated,PTH,ComponentDrill
T2C0.0236
; #@! TA.AperFunction,Plated,PTH,ComponentDrill
T3C0.0276
; #@! TA.AperFunction,Plated,PTH,ComponentDrill
T4C0.0433
; #@! TA.AperFunction,Plated,PTH,ComponentDrill
T5C0.0709
; #@! TA.AperFunction,Plated,PTH,ComponentDrill
T6C0.0866
%
G90
G05
T1
X3.5394Y-3.0551
X3.5591Y-3.5512
X3.5709Y-3.3898
X3.5866Y-3.1024
X3.6142Y-3.626
X3.6299Y-3.4685
X3.6446Y-2.928
X3.654Y-3.162
X3.832Y-2.84
X3.836Y-2.924
X3.838Y-3.078
X3.9331Y-4.0472
X3.9331Y-4.1417
X3.95Y-2.78
X3.9724Y-3.3386
X4.0276Y-3.3465
X4.0677Y-3.1063
X4.084Y-2.7885
X4.088Y-2.932
X4.088Y-3.376
X4.112Y-3.426
X4.122Y-2.934
X4.132Y-2.7885
X4.1527Y-3.2859
X4.214Y-3.046
X4.264Y-2.7885
X4.272Y-3.52
X4.276Y-3.474
X4.2945Y-3.265
X4.3Y-2.934
X4.308Y-3.146
X4.328Y-3.61
X4.374Y-3.366
X4.3858Y-3.7323
X4.4Y-3.048
X4.4323Y-3.1638
X4.4323Y-3.1638
X4.4524Y-2.8008
X4.4528Y-3.6744
X4.4988Y-2.7988
X4.4988Y-2.8622
X4.5315Y-3.1102
X4.5315Y-3.1437
X4.5409Y-2.8906
X4.6118Y-3.6323
X4.6118Y-3.6323
X4.6118Y-3.6323
X4.6126Y-3.7142
X4.616Y-3.322
X4.622Y-4.2992
X4.6417Y-3.0354
X4.6421Y-3.2626
X4.6461Y-2.8142
X4.6496Y-3.8071
X4.65Y-2.976
X4.6755Y-3.2178
X4.678Y-3.418
X4.6969Y-3.9252
X4.73Y-3.212
X4.734Y-3.4
X4.736Y-2.89
X4.7362Y-3.9055
X4.7402Y-3.8031
X4.7571Y-2.9213
X4.874Y-3.2953
X4.884Y-3.046
X4.89Y-3.132
X5.0118Y-3.6614
X5.1129Y-3.7909
X5.1299Y-3.9291
X5.1584Y-3.6566
X5.1614Y-3.9843
X5.1969Y-4.1614
X5.2087Y-3.5591
X5.2559Y-3.2992
X5.2559Y-4.0492
X5.2677Y-3.6575
X5.3031Y-3.4409
X5.3425Y-3.6575
X5.4213Y-4.1535
T3
X5.2341Y-3.6823
X5.2341Y-3.9098
T4
X4.894Y-2.698
X4.994Y-2.698
X5.094Y-2.698
X5.194Y-2.698
X5.294Y-2.698
X5.394Y-2.698
T5
X4.9882Y-2.9961
X5.1732Y-2.9961
X5.3583Y-2.9961
T6
X3.42Y-2.72
X3.42Y-4.22
X5.3268Y-4.2677
T2
G00X5.1955Y-3.626
M15
G01X5.2309Y-3.626
M16
G05
G00X5.1955Y-3.9661
M15
G01X5.2309Y-3.9661
M16
G05
G00X5.3671Y-3.626
M15
G01X5.3907Y-3.626
M16
G05
G00X5.3671Y-3.9661
M15
G01X5.3907Y-3.9661
M16
G05
M30
