%TF.GenerationSoftware,KiCad,Pcbnew,7.0.11+dfsg-1*%
%TF.CreationDate,2024-04-27T01:01:37+02:00*%
%TF.ProjectId,door_open_alarm,646f6f72-5f6f-4706-956e-5f616c61726d,rev?*%
%TF.SameCoordinates,Original*%
%TF.FileFunction,Soldermask,Top*%
%TF.FilePolarity,Negative*%
%FSLAX46Y46*%
G04 Gerber Fmt 4.6, Leading zero omitted, Abs format (unit mm)*
G04 Created by KiCad (PCBNEW 7.0.11+dfsg-1) date 2024-04-27 01:01:37*
%MOMM*%
%LPD*%
G01*
G04 APERTURE LIST*
G04 Aperture macros list*
%AMRoundRect*
0 Rectangle with rounded corners*
0 $1 Rounding radius*
0 $2 $3 $4 $5 $6 $7 $8 $9 X,Y pos of 4 corners*
0 Add a 4 corners polygon primitive as box body*
4,1,4,$2,$3,$4,$5,$6,$7,$8,$9,$2,$3,0*
0 Add four circle primitives for the rounded corners*
1,1,$1+$1,$2,$3*
1,1,$1+$1,$4,$5*
1,1,$1+$1,$6,$7*
1,1,$1+$1,$8,$9*
0 Add four rect primitives between the rounded corners*
20,1,$1+$1,$2,$3,$4,$5,0*
20,1,$1+$1,$4,$5,$6,$7,0*
20,1,$1+$1,$6,$7,$8,$9,0*
20,1,$1+$1,$8,$9,$2,$3,0*%
%AMFreePoly0*
4,1,6,0.600000,-0.600000,-0.600000,-0.600000,-0.600000,0.000000,0.000000,0.600000,0.600000,0.600000,0.600000,-0.600000,0.600000,-0.600000,$1*%
G04 Aperture macros list end*
%ADD10RoundRect,0.250000X0.250000X0.475000X-0.250000X0.475000X-0.250000X-0.475000X0.250000X-0.475000X0*%
%ADD11RoundRect,0.250000X-0.262500X-0.450000X0.262500X-0.450000X0.262500X0.450000X-0.262500X0.450000X0*%
%ADD12RoundRect,0.250000X-0.250000X-0.475000X0.250000X-0.475000X0.250000X0.475000X-0.250000X0.475000X0*%
%ADD13R,0.950000X1.150000*%
%ADD14R,0.800000X0.800000*%
%ADD15C,1.000000*%
%ADD16RoundRect,0.250000X0.262500X0.450000X-0.262500X0.450000X-0.262500X-0.450000X0.262500X-0.450000X0*%
%ADD17R,0.850000X0.300000*%
%ADD18R,1.040000X0.530000*%
%ADD19R,0.800000X0.400000*%
%ADD20R,0.400000X0.800000*%
%ADD21FreePoly0,0.000000*%
%ADD22R,1.200000X1.200000*%
%ADD23R,1.230000X1.360000*%
%ADD24R,2.000000X2.000000*%
%ADD25C,3.800000*%
%ADD26C,0.700000*%
%ADD27R,1.100000X0.550000*%
%ADD28R,1.100000X0.300000*%
%ADD29O,2.000000X1.100000*%
%ADD30O,1.800000X1.200000*%
%ADD31R,0.530000X1.040000*%
%ADD32R,0.940000X0.500000*%
%ADD33R,0.750000X0.400000*%
%ADD34C,2.500000*%
%ADD35R,2.500000X1.100000*%
%ADD36R,2.340000X3.600000*%
%ADD37R,1.700000X1.700000*%
%ADD38C,1.700000*%
G04 APERTURE END LIST*
D10*
%TO.C,C3*%
X100021400Y-74269600D03*
X98121400Y-74269600D03*
%TD*%
D11*
%TO.C,R14*%
X121056400Y-79502000D03*
X122881400Y-79502000D03*
%TD*%
D12*
%TO.C,C7*%
X113881400Y-94413700D03*
X115781400Y-94413700D03*
%TD*%
D13*
%TO.C,D4*%
X113884400Y-96774000D03*
X117264400Y-96774000D03*
%TD*%
D14*
%TO.C,LED2*%
X118110000Y-86715600D03*
X116510000Y-86715600D03*
%TD*%
D15*
%TO.C,TP8*%
X87440000Y-76170000D03*
%TD*%
D16*
%TO.C,R8*%
X91741000Y-83108800D03*
X89916000Y-83108800D03*
%TD*%
D17*
%TO.C,D1*%
X129032000Y-97020000D03*
X129032000Y-96520000D03*
X129032000Y-96020000D03*
X127592000Y-96020000D03*
X127592000Y-96520000D03*
X127592000Y-97020000D03*
%TD*%
D16*
%TO.C,R16*%
X95246200Y-74218800D03*
X93421200Y-74218800D03*
%TD*%
D10*
%TO.C,C2*%
X100021400Y-72085200D03*
X98121400Y-72085200D03*
%TD*%
D15*
%TO.C,TP2*%
X121300000Y-72000000D03*
%TD*%
D18*
%TO.C,Q3*%
X93415500Y-85018800D03*
X93415500Y-86918800D03*
X95615500Y-85968800D03*
%TD*%
D15*
%TO.C,TP5*%
X132100000Y-89300000D03*
%TD*%
%TO.C,FID1*%
X91980000Y-107270000D03*
%TD*%
D11*
%TO.C,R9*%
X89916000Y-80313850D03*
X91741000Y-80313850D03*
%TD*%
D19*
%TO.C,U1*%
X102368600Y-71377600D03*
X102368600Y-72227600D03*
X102368600Y-73077600D03*
X102368600Y-73927600D03*
X102368600Y-74777600D03*
X102368600Y-75627600D03*
X102368600Y-76477600D03*
X102368600Y-77327600D03*
X102368600Y-78177600D03*
X102368600Y-79027600D03*
X102368600Y-79877600D03*
X102368600Y-80727600D03*
X102368600Y-81577600D03*
X102368600Y-82427600D03*
X102368600Y-83277600D03*
D20*
X103418600Y-84327600D03*
X104268600Y-84327600D03*
X105118600Y-84327600D03*
X105968600Y-84327600D03*
X106818600Y-84327600D03*
X107668600Y-84327600D03*
X108518600Y-84327600D03*
X109368600Y-84327600D03*
X110218600Y-84327600D03*
X111068600Y-84327600D03*
X111918600Y-84327600D03*
X112768600Y-84327600D03*
X113618600Y-84327600D03*
X114468600Y-84327600D03*
X115318600Y-84327600D03*
D19*
X116368600Y-83277600D03*
X116368600Y-82427600D03*
X116368600Y-81577600D03*
X116368600Y-80727600D03*
X116368600Y-79877600D03*
X116368600Y-79027600D03*
X116368600Y-78177600D03*
X116368600Y-77327600D03*
X116368600Y-76477600D03*
X116368600Y-75627600D03*
X116368600Y-74777600D03*
X116368600Y-73927600D03*
X116368600Y-73077600D03*
X116368600Y-72227600D03*
X116368600Y-71377600D03*
D20*
X115318600Y-70327600D03*
X114468600Y-70327600D03*
X113618600Y-70327600D03*
X112768600Y-70327600D03*
X111918600Y-70327600D03*
X111068600Y-70327600D03*
X110218600Y-70327600D03*
X109368600Y-70327600D03*
X108518600Y-70327600D03*
X107668600Y-70327600D03*
X106818600Y-70327600D03*
X105968600Y-70327600D03*
X105118600Y-70327600D03*
X104268600Y-70327600D03*
X103418600Y-70327600D03*
D21*
X107718600Y-75677600D03*
D22*
X107718600Y-77327600D03*
X107718600Y-78977600D03*
X109368600Y-75677600D03*
X109368600Y-77327600D03*
X109368600Y-78977600D03*
X111018600Y-75677600D03*
X111018600Y-77327600D03*
X111018600Y-78977600D03*
D14*
X102368600Y-70327600D03*
X102368600Y-84327600D03*
X116368600Y-84327600D03*
X116368600Y-70327600D03*
%TD*%
D23*
%TO.C,ESP_RESET*%
X109982000Y-94691200D03*
X105622000Y-94691200D03*
%TD*%
D11*
%TO.C,R5*%
X135951500Y-104300000D03*
X137776500Y-104300000D03*
%TD*%
D13*
%TO.C,D2*%
X126414000Y-90678000D03*
X129794000Y-90678000D03*
%TD*%
D11*
%TO.C,R3*%
X112841500Y-86715600D03*
X114666500Y-86715600D03*
%TD*%
D14*
%TO.C,LED1*%
X121412000Y-99060000D03*
X123012000Y-99060000D03*
%TD*%
D15*
%TO.C,TP4*%
X111400000Y-102100000D03*
%TD*%
D13*
%TO.C,D3*%
X105542800Y-91690000D03*
X108922800Y-91690000D03*
%TD*%
D16*
%TO.C,R1*%
X127000000Y-99060000D03*
X125175000Y-99060000D03*
%TD*%
D24*
%TO.C,BAT*%
X136855200Y-83616800D03*
%TD*%
D16*
%TO.C,R10*%
X99359100Y-83769200D03*
X97534100Y-83769200D03*
%TD*%
D11*
%TO.C,R4*%
X127357500Y-94030800D03*
X129182500Y-94030800D03*
%TD*%
D16*
%TO.C,R6*%
X107444500Y-87071200D03*
X105619500Y-87071200D03*
%TD*%
D15*
%TO.C,FID3*%
X91610000Y-68870000D03*
%TD*%
D10*
%TO.C,C1*%
X133750000Y-104300000D03*
X131850000Y-104300000D03*
%TD*%
D25*
%TO.C,H2*%
X135300000Y-108400000D03*
%TD*%
D11*
%TO.C,R17*%
X121060200Y-77266800D03*
X122885200Y-77266800D03*
%TD*%
D26*
%TO.C,USB1*%
X132945000Y-99310000D03*
X132945000Y-93530000D03*
D27*
X131865000Y-99620000D03*
X131865000Y-98820000D03*
D28*
X131865000Y-98170000D03*
X131865000Y-97670000D03*
X131865000Y-97170000D03*
X131865000Y-96670000D03*
X131865000Y-96170000D03*
X131865000Y-95670000D03*
X131865000Y-95170000D03*
X131865000Y-94670000D03*
D27*
X131865000Y-94020000D03*
X131865000Y-93220000D03*
D29*
X132415000Y-100740000D03*
D30*
X136625000Y-100740000D03*
D29*
X132415000Y-92100000D03*
D30*
X136625000Y-92100000D03*
%TD*%
D15*
%TO.C,TP1*%
X129000000Y-102400000D03*
%TD*%
D16*
%TO.C,R12*%
X99361000Y-81635600D03*
X97536000Y-81635600D03*
%TD*%
D15*
%TO.C,TP3*%
X102400000Y-94600000D03*
%TD*%
D11*
%TO.C,R2*%
X121515500Y-96520000D03*
X123340500Y-96520000D03*
%TD*%
D15*
%TO.C,TP7*%
X90800000Y-93400000D03*
%TD*%
D31*
%TO.C,Q1*%
X91829300Y-85121000D03*
X89929300Y-85121000D03*
X90879300Y-87321000D03*
%TD*%
D11*
%TO.C,R15*%
X93468200Y-88950800D03*
X95293200Y-88950800D03*
%TD*%
D25*
%TO.C,H3*%
X86868000Y-107188000D03*
%TD*%
D24*
%TO.C,REED_G1*%
X117200000Y-107400000D03*
%TD*%
D10*
%TO.C,C5*%
X122896800Y-86265800D03*
X120996800Y-86265800D03*
%TD*%
D25*
%TO.C,H4*%
X86868000Y-69088000D03*
%TD*%
D32*
%TO.C,Q2*%
X95451300Y-83748400D03*
X95451300Y-82448400D03*
X93651300Y-83098400D03*
%TD*%
D23*
%TO.C,BOOT0*%
X118211600Y-99822000D03*
X113851600Y-99822000D03*
%TD*%
D15*
%TO.C,TP11*%
X109200000Y-110400000D03*
%TD*%
D10*
%TO.C,C8*%
X100006200Y-78181200D03*
X98106200Y-78181200D03*
%TD*%
%TO.C,C4*%
X122902000Y-81621600D03*
X121002000Y-81621600D03*
%TD*%
D15*
%TO.C,TP6*%
X87900000Y-90800000D03*
%TD*%
D24*
%TO.C,REED_OUT1*%
X113300000Y-107400000D03*
%TD*%
D33*
%TO.C,L1*%
X123144800Y-93211600D03*
X121304800Y-93211600D03*
X121304800Y-92411600D03*
X123144800Y-92411600D03*
%TD*%
D34*
%TO.C,SW3*%
X126700000Y-76100000D03*
X131400000Y-76100000D03*
X136100000Y-76100000D03*
%TD*%
D24*
%TO.C,GND*%
X136855200Y-87223600D03*
%TD*%
D35*
%TO.C,U2*%
X125730000Y-81556800D03*
X125730000Y-83856800D03*
X125730000Y-86156800D03*
D36*
X131670000Y-83856800D03*
%TD*%
D16*
%TO.C,R11*%
X95396700Y-80264000D03*
X93571700Y-80264000D03*
%TD*%
%TO.C,R7*%
X115677900Y-92026100D03*
X113852900Y-92026100D03*
%TD*%
D12*
%TO.C,C6*%
X105597200Y-89408000D03*
X107497200Y-89408000D03*
%TD*%
D37*
%TO.C,H1*%
X124307600Y-68529200D03*
D38*
X126847600Y-68529200D03*
X129387600Y-68529200D03*
X131927600Y-68529200D03*
X134467600Y-68529200D03*
X137007600Y-68529200D03*
%TD*%
D11*
%TO.C,R13*%
X93421200Y-76504800D03*
X95246200Y-76504800D03*
%TD*%
M02*
